<svg width="24" height="24" style="clip-rule:evenodd;fill-rule:evenodd;image-rendering:optimizeQuality;shape-rendering:geometricPrecision;text-rendering:geometricPrecision" version="1.1" xmlns="http://www.w3.org/2000/svg">
 <g transform="matrix(.061178 0 0 .061178 -.053919 -.11687)">
  <path d="m182.67 4.5059c-5.4898 0.13213-10.695 0.54028-14.168 0.99414-31.629 4.6535-59.629 17.154-84 37.5-20.572 21.235-40.405 43.068-59.5 65.5-8.8218 11.842-15.488 24.842-20 39-9.7914 53.588-2.1248 104.59 23 153 20.258 38.097 50.758 64.097 91.5 78 9.8288 2.9428 16.121 4.5146 22 6 73.365 17.24 139.7 2.74 199-43.5 29.075-24.976 46.575-56.476 52.5-94.5 4.103-135.71-61.352-215.71-194.46-241.33-4.6121-0.65206-10.387-0.7962-15.877-0.66406z" style="fill:#ffab61;opacity:.995"/>
  <g transform="translate(-360)" style="fill:#874d19">
   <path d="m559.43 5.3436c-3.702-0.98554-19.393-1.6602-30.928 0.15636 0.166 6.3421 0 12.675-0.5 19-1.059 3.1179-2.392 6.1179-4 9-6.777 2.5927-13.277 5.7594-19.5 9.5-4.559 4.2804-7.726 9.4471-9.5 15.5 1.935 14.98 0.602 29.646-4 44-6.46 14.254-11.793 28.92-16 44-5.091 26.877-9.424 53.877-13 81-4.5775 29.841-6.2442 59.841-5 90 1.5527 8.543 3.886 16.876 7 25 4.904 12.138 10.07 24.138 15.5 36 7.153 2.606 14.486 4.606 22 6 7.046-48.825 13.879-97.825 20.5-147 0.69-2.696 2.19-4.863 4.5-6.5 9.69-1.245 19.024 0.088 28 4 17.256 9.962 28.089 24.795 32.5 44.5 6.284 31.266 5.784 62.432-1.5 93.5-0.061 1.711 0.606 3.044 2 4 5.7 0.543 10.533-1.29 14.5-5.5 11.28-19.563 24.28-37.896 39-55 2.587-4.761 4.587-9.761 6-15 5.813-31.936 1.147-62.269-14-91l-9-9c-2.291-3.335-1.791-6.168 1.5-8.5 17.151-4.812 29.318-15.312 36.5-31.5 6.096-20.575 9.596-41.575 10.5-63 0.502-9.3474-1.832-17.847-7-25.5-5.857-2.9503-10.023-1.4503-12.5 4.5-2.177 9.0429-4.511 18.043-7 27-0.718 0.951-1.551 1.117-2.5 0.5-14.278-28.278-35.778-49.112-64.5-62.5-0.179-2.6475-0.012-5.3141 0.5-8-0.015-2.1341-0.515-4.1341-1.5-6-5-3.6667-10-7.3333-15-11-2.26-4.0396-3.7884-7.1564-3.5724-12.156zm-10.928 75.156c26.056 2.7664 45.556 15.433 58.5 38 8.501 30.165-1.999 50.665-31.5 61.5-14.501 4.923-29.167 5.589-44 2-0.622-1.569-0.956-3.236-1-5 5.616-32.286 11.616-64.453 18-96.5z" style="fill:#874d19"/>
  </g>
 </g>
</svg>
